mtllib cornell_box.mtl
c cb_cam 0 0.471239 1 0 5.15 1 0 0 0 1 0 0 0 1 0 1 5.15
v -1 4.37114e-08 1
v 1 4.37114e-08 1
v -1 -4.37114e-08 -1
v 1 -4.37114e-08 -1
v -1 2 -1
v 1 2 -1
v -1 2 1
v 1 2 1
v -1 0 -1
v 1 0 -1
v -1 2 -1
v 1 2 -1
v 1 5.96046e-08 -1
v 1 5.96046e-08 1
v 1 2 -1
v 1 2 1
v -1 5.96046e-08 1
v -1 5.96046e-08 -1
v -1 2 1
v -1 2 -1
v -0.542132 0 0.0774235
v 0.0374235 0 -0.077868
v -0.542132 1.2 0.0774235
v 0.0374235 1.2 -0.077868
v -0.117868 0 -0.657423
v -0.697423 0 -0.502132
v -0.117868 1.2 -0.657423
v -0.697423 1.2 -0.502132
v -0.117868 1.2 -0.657423
v -0.697423 1.2 -0.502132
v 0.0374235 1.2 -0.077868
v -0.542132 1.2 0.0774235
v -0.697423 0 -0.502132
v -0.117868 0 -0.657423
v -0.542132 0 0.0774235
v 0.0374235 0 -0.077868
v -0.117868 0 -0.657423
v -0.117868 1.2 -0.657423
v 0.0374235 0 -0.077868
v 0.0374235 1.2 -0.077868
v -0.697423 1.2 -0.502132
v -0.697423 0 -0.502132
v -0.542132 1.2 0.0774235
v -0.542132 0 0.0774235
v -0.0374235 0 0.542132
v 0.542132 0 0.697423
v -0.0374235 0.6 0.542132
v 0.542132 0.6 0.697423
v 0.697423 0 0.117868
v 0.117868 0 -0.0374235
v 0.697423 0.6 0.117868
v 0.117868 0.6 -0.0374235
v 0.697423 0.6 0.117868
v 0.117868 0.6 -0.0374235
v 0.542132 0.6 0.697423
v -0.0374235 0.6 0.542132
v 0.117868 0 -0.0374235
v 0.697423 0 0.117868
v -0.0374235 0 0.542132
v 0.542132 0 0.697423
v 0.697423 0 0.117868
v 0.697423 0.6 0.117868
v 0.542132 0 0.697423
v 0.542132 0.6 0.697423
v 0.117868 0.6 -0.0374235
v 0.117868 0 -0.0374235
v -0.0374235 0.6 0.542132
v -0.0374235 0 0.542132
v -0.25 1.999 -0.25
v 0.25 1.999 -0.25
v -0.25 1.999 0.25
v 0.25 1.999 0.25
vt 0 1
vt 1 1
vt 0 0
vt 1 0
vt 0 1
vt 1 1
vt 0 0
vt 1 0
vt 0 1
vt 1 1
vt 0 0
vt 1 0
vt 0 1
vt 1 1
vt 0 0
vt 1 0
vt 0 1
vt 1 1
vt 0 0
vt 1 0
vt 0 1
vt 1 1
vt 0 0
vt 1 0
vt 0 1
vt 1 1
vt 0 0
vt 1 0
vt 0 1
vt 1 1
vt 0 0
vt 1 0
vt 0 1
vt 1 1
vt 0 0
vt 1 0
vt 0 1
vt 1 1
vt 0 0
vt 1 0
vt 0 1
vt 1 1
vt 0 0
vt 1 0
vt 0 1
vt 1 1
vt 0 0
vt 1 0
vt 0 1
vt 1 1
vt 0 0
vt 1 0
vt 0 1
vt 1 1
vt 0 0
vt 1 0
vt 0 1
vt 1 1
vt 0 0
vt 1 0
vt 0 1
vt 1 1
vt 0 0
vt 1 0
vt 0 1
vt 1 1
vt 0 0
vt 1 0
vt 0 1
vt 1 1
vt 0 0
vt 1 0
vn 0 1 -4.37114e-08
vn 0 1 -4.37114e-08
vn 0 1 -4.37114e-08
vn 0 1 -4.37114e-08
vn 0 -1 -4.37114e-08
vn 0 -1 -4.37114e-08
vn 0 -1 -4.37114e-08
vn 0 -1 -4.37114e-08
vn 0 0 1
vn 0 0 1
vn 0 0 1
vn 0 0 1
vn -1 0 -4.37114e-08
vn -1 0 -4.37114e-08
vn -1 0 -4.37114e-08
vn -1 0 -4.37114e-08
vn 1 0 -4.37114e-08
vn 1 0 -4.37114e-08
vn 1 0 -4.37114e-08
vn 1 0 -4.37114e-08
vn 0.258819 0 0.965926
vn 0.258819 0 0.965926
vn 0.258819 0 0.965926
vn 0.258819 0 0.965926
vn -0.258819 0 -0.965926
vn -0.258819 0 -0.965926
vn -0.258819 0 -0.965926
vn -0.258819 0 -0.965926
vn 0 1 0
vn 0 1 0
vn 0 1 0
vn 0 1 0
vn 0 -1 0
vn 0 -1 0
vn 0 -1 0
vn 0 -1 0
vn 0.965926 0 -0.258819
vn 0.965926 0 -0.258819
vn 0.965926 0 -0.258819
vn 0.965926 0 -0.258819
vn -0.965926 0 0.258819
vn -0.965926 0 0.258819
vn -0.965926 0 0.258819
vn -0.965926 0 0.258819
vn -0.258819 0 0.965926
vn -0.258819 0 0.965926
vn -0.258819 0 0.965926
vn -0.258819 0 0.965926
vn 0.258819 0 -0.965926
vn 0.258819 0 -0.965926
vn 0.258819 0 -0.965926
vn 0.258819 0 -0.965926
vn 0 1 0
vn 0 1 0
vn 0 1 0
vn 0 1 0
vn 0 -1 0
vn 0 -1 0
vn 0 -1 0
vn 0 -1 0
vn 0.965926 0 0.258819
vn 0.965926 0 0.258819
vn 0.965926 0 0.258819
vn 0.965926 0 0.258819
vn -0.965926 0 -0.258819
vn -0.965926 0 -0.258819
vn -0.965926 0 -0.258819
vn -0.965926 0 -0.258819
vn 0 -1 -4.37114e-08
vn 0 -1 -4.37114e-08
vn 0 -1 -4.37114e-08
vn 0 -1 -4.37114e-08
o cb_floor
usemtl cb_white
f 1/1/1 2/2/2 4/4/4 3/3/3
o cb_ceiling
usemtl cb_white
f 5/5/5 6/6/6 8/8/8 7/7/7
o cb_back
usemtl cb_white
f 9/9/9 10/10/10 12/12/12 11/11/11
o cb_back
usemtl cb_green
f 13/13/13 14/14/14 16/16/16 15/15/15
o cb_back
usemtl cb_red
f 17/17/17 18/18/18 20/20/20 19/19/19
o cb_tallbox
usemtl cb_white
f 21/21/21 22/22/22 24/24/24 23/23/23
f 25/25/25 26/26/26 28/28/28 27/27/27
f 29/29/29 30/30/30 32/32/32 31/31/31
f 33/33/33 34/34/34 36/36/36 35/35/35
f 37/37/37 38/38/38 40/40/40 39/39/39
f 41/41/41 42/42/42 44/44/44 43/43/43
o cb_shortbox
usemtl cb_white
f 45/45/45 46/46/46 48/48/48 47/47/47
f 49/49/49 50/50/50 52/52/52 51/51/51
f 53/53/53 54/54/54 56/56/56 55/55/55
f 57/57/57 58/58/58 60/60/60 59/59/59
f 61/61/61 62/62/62 64/64/64 63/63/63
f 65/65/65 66/66/66 68/68/68 67/67/67
o cb_light
usemtl cb_light
f 69/69/69 70/70/70 72/72/72 71/71/71
